<svg xmlns="http://www.w3.org/2000/svg" width="69" height="70" viewBox="0 0 69 70">
    <g fill="none" fill-rule="evenodd">
        <ellipse cx="34.5" cy="35" fill="#FFF" rx="24.5" ry="25"/>
        <path fill="#222" d="M45.126 43.195v-2.917A6.222 6.222 0 0 0 48.024 35c0-3.428-2.74-6.207-6.118-6.207-2.197 0-4.124 1.176-5.203 2.94h-2.875c1.28-3.253 4.414-5.553 8.078-5.553 4.802 0 8.694 3.949 8.694 8.82 0 3.717-2.267 6.897-5.474 8.195M34.5 51.333H27.094V45.78c.883 0 1.745-.092 2.576-.268v3.208h4.83c3.379 0 6.118-2.779 6.118-6.206 0-3.428-2.74-6.207-6.118-6.207h-4.83v2.351a6.014 6.014 0 0 1-2.556.567h-.02V18.667H34.5c3.658 0 6.789 2.292 8.072 5.538a12.487 12.487 0 0 0-2.782.162c-1.06-1.846-3.032-3.087-5.29-3.087h-4.83v12.413h4.83c1.954 0 3.694-.929 4.815-2.376a6.014 6.014 0 0 1 3.252-.536A8.825 8.825 0 0 1 39.055 35a8.842 8.842 0 0 1 4.139 7.513c0 4.87-3.892 8.82-8.694 8.82M18.4 35c0-4.197 2.89-7.71 6.762-8.601v2.71c-2.432.821-4.186 3.148-4.186 5.891 0 3.428 2.74 6.207 6.118 6.207 2.197 0 4.124-1.176 5.203-2.94h2.875c-1.28 3.253-4.414 5.553-8.078 5.553-4.802 0-8.694-3.949-8.694-8.82M34.5 0C15.446 0 0 15.67 0 35s15.446 35 34.5 35C53.554 70 69 54.33 69 35S53.554 0 34.5 0"/>
    </g>
</svg>
